<svg width="226" height="67" viewBox="0 0 226 67" fill="none" xmlns="http://www.w3.org/2000/svg">
<rect y="0.5" width="226" height="66" rx="20" fill="white"/>
<path d="M44.572 47.5V20.9H55.516C57.872 20.9 59.886 21.28 61.558 22.04C63.2553 22.8 64.56 23.8893 65.472 25.308C66.384 26.7267 66.84 28.4113 66.84 30.362C66.84 32.3127 66.384 33.9973 65.472 35.416C64.56 36.8093 63.2553 37.886 61.558 38.646C59.886 39.3807 57.872 39.748 55.516 39.748H47.308L49.512 37.506V47.5H44.572ZM61.976 47.5L55.25 37.848H60.532L67.296 47.5H61.976ZM49.512 38.038L47.308 35.682H55.288C57.4667 35.682 59.1007 35.2133 60.19 34.276C61.3047 33.3387 61.862 32.034 61.862 30.362C61.862 28.6647 61.3047 27.36 60.19 26.448C59.1007 25.536 57.4667 25.08 55.288 25.08H47.308L49.512 22.648V38.038ZM81.4489 47.766C79.1943 47.766 77.2183 47.3227 75.5209 46.436C73.8489 45.524 72.5443 44.2827 71.6069 42.712C70.6949 41.1413 70.2389 39.3553 70.2389 37.354C70.2389 35.3273 70.6823 33.5413 71.5689 31.996C72.4809 30.4253 73.7223 29.1967 75.2929 28.31C76.8889 27.4233 78.7003 26.98 80.7269 26.98C82.7029 26.98 84.4636 27.4107 86.0089 28.272C87.5543 29.1333 88.7703 30.3493 89.6569 31.92C90.5436 33.4907 90.9869 35.34 90.9869 37.468C90.9869 37.6707 90.9743 37.8987 90.9489 38.152C90.9489 38.4053 90.9363 38.646 90.9109 38.874H74.0009V35.72H88.4029L86.5409 36.708C86.5663 35.5427 86.3256 34.5167 85.8189 33.63C85.3123 32.7433 84.6156 32.0467 83.7289 31.54C82.8676 31.0333 81.8669 30.78 80.7269 30.78C79.5616 30.78 78.5356 31.0333 77.6489 31.54C76.7876 32.0467 76.1036 32.756 75.5969 33.668C75.1156 34.5547 74.8749 35.606 74.8749 36.822V37.582C74.8749 38.798 75.1536 39.8747 75.7109 40.812C76.2683 41.7493 77.0536 42.4713 78.0669 42.978C79.0803 43.4847 80.2456 43.738 81.5629 43.738C82.7029 43.738 83.7289 43.5607 84.6409 43.206C85.5529 42.8513 86.3636 42.294 87.0729 41.534L89.6189 44.46C88.7069 45.524 87.5543 46.3473 86.1609 46.93C84.7929 47.4873 83.2223 47.766 81.4489 47.766ZM107.064 26.98C108.685 26.98 110.129 27.2967 111.396 27.93C112.688 28.5633 113.701 29.5387 114.436 30.856C115.17 32.148 115.538 33.82 115.538 35.872V47.5H110.788V36.48C110.788 34.6813 110.357 33.3387 109.496 32.452C108.66 31.5653 107.482 31.122 105.962 31.122C104.847 31.122 103.859 31.35 102.998 31.806C102.136 32.262 101.465 32.946 100.984 33.858C100.528 34.7447 100.3 35.872 100.3 37.24V47.5H95.5496V27.208H100.072V32.68L99.2736 31.008C99.9829 29.716 101.009 28.728 102.352 28.044C103.72 27.3347 105.29 26.98 107.064 26.98ZM130.188 47.766C128.238 47.766 126.477 47.3353 124.906 46.474C123.361 45.5873 122.145 44.3713 121.258 42.826C120.372 41.2807 119.928 39.4567 119.928 37.354C119.928 35.2513 120.372 33.4273 121.258 31.882C122.145 30.3367 123.361 29.1333 124.906 28.272C126.477 27.4107 128.238 26.98 130.188 26.98C131.886 26.98 133.406 27.36 134.748 28.12C136.091 28.8547 137.155 29.982 137.94 31.502C138.726 33.022 139.118 34.9727 139.118 37.354C139.118 39.71 138.738 41.6607 137.978 43.206C137.218 44.726 136.167 45.866 134.824 46.626C133.482 47.386 131.936 47.766 130.188 47.766ZM130.758 43.7C131.898 43.7 132.912 43.4467 133.798 42.94C134.71 42.4333 135.432 41.6987 135.964 40.736C136.522 39.7733 136.8 38.646 136.8 37.354C136.8 36.0367 136.522 34.9093 135.964 33.972C135.432 33.0093 134.71 32.2747 133.798 31.768C132.912 31.2613 131.898 31.008 130.758 31.008C129.618 31.008 128.592 31.2613 127.68 31.768C126.794 32.2747 126.072 33.0093 125.514 33.972C124.982 34.9093 124.716 36.0367 124.716 37.354C124.716 38.646 124.982 39.7733 125.514 40.736C126.072 41.6987 126.794 42.4333 127.68 42.94C128.592 43.4467 129.618 43.7 130.758 43.7ZM136.914 47.5V42.712L137.104 37.316L136.724 31.92V19.304H141.436V47.5H136.914ZM157.226 47.766C154.972 47.766 152.996 47.3227 151.298 46.436C149.626 45.524 148.322 44.2827 147.384 42.712C146.472 41.1413 146.016 39.3553 146.016 37.354C146.016 35.3273 146.46 33.5413 147.346 31.996C148.258 30.4253 149.5 29.1967 151.07 28.31C152.666 27.4233 154.478 26.98 156.504 26.98C158.48 26.98 160.241 27.4107 161.786 28.272C163.332 29.1333 164.548 30.3493 165.434 31.92C166.321 33.4907 166.764 35.34 166.764 37.468C166.764 37.6707 166.752 37.8987 166.726 38.152C166.726 38.4053 166.714 38.646 166.688 38.874H149.778V35.72H164.18L162.318 36.708C162.344 35.5427 162.103 34.5167 161.596 33.63C161.09 32.7433 160.393 32.0467 159.506 31.54C158.645 31.0333 157.644 30.78 156.504 30.78C155.339 30.78 154.313 31.0333 153.426 31.54C152.565 32.0467 151.881 32.756 151.374 33.668C150.893 34.5547 150.652 35.606 150.652 36.822V37.582C150.652 38.798 150.931 39.8747 151.488 40.812C152.046 41.7493 152.831 42.4713 153.844 42.978C154.858 43.4847 156.023 43.738 157.34 43.738C158.48 43.738 159.506 43.5607 160.418 43.206C161.33 42.8513 162.141 42.294 162.85 41.534L165.396 44.46C164.484 45.524 163.332 46.3473 161.938 46.93C160.57 47.4873 159 47.766 157.226 47.766ZM171.327 47.5V27.208H175.849V32.794L175.317 31.16C175.925 29.792 176.875 28.7533 178.167 28.044C179.484 27.3347 181.118 26.98 183.069 26.98V31.502C182.866 31.4513 182.676 31.426 182.499 31.426C182.322 31.4007 182.144 31.388 181.967 31.388C180.168 31.388 178.737 31.92 177.673 32.984C176.609 34.0227 176.077 35.5807 176.077 37.658V47.5H171.327Z" fill="url(#paint0_linear_1_54)"/>
<defs>
<linearGradient id="paint0_linear_1_54" x1="41" y1="33.5" x2="185" y2="33.5" gradientUnits="userSpaceOnUse">
<stop stop-color="#0B1352"/>
<stop offset="1" stop-color="#0896E2"/>
</linearGradient>
</defs>
</svg>
